<svg width="44" height="43" viewBox="0 0 44 43" fill="none" xmlns="http://www.w3.org/2000/svg">
<mask id="mask0_117_1130" style="mask-type:luminance" maskUnits="userSpaceOnUse" x="0" y="0" width="44" height="42">
<path d="M0.520813 0.448975H43.4792V41.7551H0.520813V0.448975Z" fill="white"/>
</mask>
<g mask="url(#mask0_117_1130)">
<path d="M34.7277 0.448975H9.94403C7.75301 0.448975 5.65174 1.31935 4.10246 2.86863C2.55318 4.41791 1.6828 6.51919 1.6828 8.7102V33.4939C1.6828 35.6849 2.55318 37.7862 4.10246 39.3354C5.65174 40.8847 7.75301 41.7551 9.94403 41.7551H34.7277C36.9187 41.7551 39.02 40.8847 40.5693 39.3354C42.1185 37.7862 42.9889 35.6849 42.9889 33.4939V8.7102C42.9889 6.51919 42.1185 4.41791 40.5693 2.86863C39.02 1.31935 36.9187 0.448975 34.7277 0.448975Z" fill="black"/>
<mask id="mask1_117_1130" style="mask-type:luminance" maskUnits="userSpaceOnUse" x="5" y="4" width="35" height="34">
<path d="M39.5255 4.57959H5.79187V37.6245H39.5255V4.57959Z" fill="white"/>
</mask>
<g mask="url(#mask1_117_1130)">
<path fill-rule="evenodd" clip-rule="evenodd" d="M22.608 4.57959C13.3096 4.57959 5.79187 12.1521 5.79187 21.5205C5.79187 29.0095 10.6085 35.3491 17.2911 37.5922C18.1262 37.761 18.4315 37.2285 18.4315 36.7795C18.4315 36.3871 18.4046 35.0402 18.4046 33.6375C13.7262 34.6478 12.7529 31.618 12.7529 31.618C12.0004 29.6551 10.8869 29.1504 10.8869 29.1504C9.35587 28.1124 10.9982 28.1124 10.9982 28.1124C12.6972 28.2246 13.588 29.8518 13.588 29.8518C15.0911 32.4316 17.5129 31.7024 18.4881 31.2535C18.6273 30.1598 19.0718 29.4028 19.5459 28.9816C15.8149 28.5892 11.8899 27.1309 11.8899 20.6234C11.8899 18.7718 12.5571 17.2579 13.6158 16.0798C13.4488 15.6586 12.8633 13.9202 13.7828 11.5918C13.7828 11.5918 15.2025 11.1428 18.4037 13.3311C19.7744 12.9604 21.188 12.7717 22.608 12.7699C24.0285 12.7699 25.476 12.9665 26.8122 13.3311C30.0143 11.1428 31.434 11.5918 31.434 11.5918C32.3535 13.9193 31.768 15.6595 31.601 16.0798C32.6875 17.2579 33.3269 18.7718 33.3269 20.6234C33.3269 27.1309 29.4019 28.5614 25.6431 28.9816C26.2555 29.515 26.7844 30.5243 26.7844 32.1236C26.7844 34.3954 26.7574 36.2183 26.7574 36.7795C26.7574 37.2285 27.0627 37.761 27.8978 37.5931C34.5804 35.3482 39.3971 29.0095 39.3971 21.5205C39.424 12.153 31.8794 4.57959 22.608 4.57959Z" fill="white"/>
</g>
</g>
</svg>
