<svg width="44" height="44" viewBox="0 0 44 44" fill="none" xmlns="http://www.w3.org/2000/svg">
<g clip-path="url(#clip0_117_1083)">
<path d="M7.52583 7.52582C7.52583 7.52582 16.7897 2.89665 21.4207 0.57932C22.2635 0.163817 23.1968 -0.0346851 24.1358 0.00181998C25.5402 0.0879866 27.2103 1.44649 27.2103 1.44649L44 18.238V36.1845H36.1845V44H17.9465L1.4465 27.5C0.5555 26.5833 0 25.2908 0 24.0258C0 23.441 0.33 22.5262 0.579333 22L7.52583 7.52582ZM8.77067 8.77065V30.3801C8.77433 31.3756 8.80917 32.2575 9.68367 33.1448L18.7073 42.1666H34.3512V34.3512L8.77067 8.77065ZM30.8715 7.52765C29.2233 5.88499 27.555 4.26432 25.8482 2.68215C25.2945 2.19265 24.8087 1.82415 23.8865 1.83515C23.2082 1.86082 22.2915 2.19265 22.2915 2.19265L11.6252 7.52582L30.8715 7.52765Z" fill="#0175C2"/>
</g>
<defs>
<clipPath id="clip0_117_1083">
<rect width="44" height="44" fill="white"/>
</clipPath>
</defs>
</svg>
